<svg width="36" height="36" viewBox="0 0 36 36" fill="none" xmlns="http://www.w3.org/2000/svg">
<path d="M28.3025 21.6485L28.3026 21.6486C28.4422 21.7184 28.5596 21.8258 28.6416 21.9587C28.7236 22.0915 28.767 22.2446 28.7668 22.4007M28.3025 21.6485L14.1197 7.90341V7.75341C12.4321 7.75341 10.8136 8.4238 9.62032 9.61711C8.42701 10.8104 7.75662 12.4289 7.75662 14.1165V14.1166C7.76077 18 9.30527 21.7231 12.0512 24.469C14.7972 27.215 18.5203 28.7595 22.4036 28.7636H22.4038C24.0914 28.7636 25.7098 28.0932 26.9031 26.8999C28.0964 25.7067 28.7668 24.0882 28.7668 22.4007M28.3025 21.6485L22.7798 18.8872L22.7796 18.8871C22.6473 18.8212 22.4999 18.7913 22.3524 18.8005C22.2048 18.8097 22.0623 18.8577 21.9393 18.9396L21.9391 18.9397L19.1388 20.8077L28.3025 21.6485ZM28.7668 22.4007L28.6168 22.4006H28.7668C28.7668 22.4006 28.7668 22.4006 28.7668 22.4007ZM14.8736 8.21972L14.8734 8.21947L14.7393 8.28655L14.8736 8.21972ZM13.9809 17.6252L13.9814 17.6263C14.9138 19.843 16.6772 21.6064 18.8939 22.5388L18.8945 22.5391C19.0224 22.5922 19.1614 22.6129 19.2992 22.5994C19.437 22.5858 19.5693 22.5384 19.6843 22.4615C19.6843 22.4614 19.6844 22.4614 19.6844 22.4614L22.4662 20.6113L27.0613 22.908C26.9382 24.0371 26.4087 25.0843 25.5695 25.8531C24.7054 26.6447 23.5759 27.0836 22.4039 27.083C18.9661 27.0793 15.6701 25.7121 13.2391 23.2811C10.8082 20.8502 9.44091 17.5542 9.4373 14.1163C9.43713 12.9444 9.8764 11.8151 10.6684 10.9513C11.4374 10.1125 12.4849 9.5833 13.614 9.46066L15.9107 14.0557L14.0608 16.8373C14.0607 16.8375 14.0606 16.8376 14.0605 16.8377C13.9836 16.9523 13.9361 17.084 13.9222 17.2213C13.9083 17.3587 13.9285 17.4974 13.9809 17.6252ZM10.3858 31.8751L10.3856 31.8749C10.258 31.8015 10.1135 31.7625 9.96632 31.7617H9.96565C9.8748 31.7617 9.78456 31.7766 9.69854 31.8058C9.69836 31.8059 9.69818 31.8059 9.698 31.806L3.24771 33.9561L3.29514 34.0984L3.24768 33.9561C3.15248 33.9879 3.05031 33.9925 2.95263 33.9694C2.85496 33.9464 2.76563 33.8966 2.69466 33.8256C2.6237 33.7546 2.5739 33.6653 2.55085 33.5676C2.5278 33.4699 2.5324 33.3678 2.56415 33.2726L2.42186 33.2251L2.56416 33.2726L4.71452 26.8215C4.75228 26.7086 4.76563 26.589 4.75367 26.4705C4.74172 26.3521 4.70475 26.2375 4.6452 26.1345L4.64515 26.1344C2.91116 23.1371 2.21478 19.6514 2.66404 16.218C3.1133 12.7845 4.68309 9.59531 7.12987 7.14508C9.57665 4.69485 12.7637 3.12059 16.1965 2.6665C19.6293 2.21242 23.116 2.9039 26.1157 4.63367C29.1154 6.36345 31.4604 9.03482 32.7869 12.2334C34.1135 15.4319 34.3473 18.9788 33.4523 22.3239C32.5573 25.6689 30.5833 28.6251 27.8367 30.7337C25.0901 32.8424 21.7244 33.9858 18.2617 33.9864C15.4964 33.9872 12.7798 33.259 10.3858 31.8751ZM0.914945 33.9538L1.06093 33.9193L0.914945 33.9538C1.0097 34.3553 1.21439 34.7225 1.50609 35.0142L1.61215 34.9081L1.50609 35.0142C1.79779 35.3059 2.16496 35.5106 2.56645 35.6053C2.96795 35.7001 3.3879 35.6811 3.77923 35.5506L9.87644 33.5176C12.1856 34.7857 14.7528 35.5133 17.3846 35.6452C20.0383 35.7782 22.6873 35.302 25.1285 34.253C27.5697 33.2041 29.7385 31.6102 31.4685 29.5936C33.1986 27.577 34.4441 25.1911 35.1096 22.6187C35.7751 20.0463 35.8429 17.3558 35.3079 14.7531C34.7729 12.1505 33.6492 9.70486 32.0229 7.60362C30.3967 5.50237 28.311 3.80126 25.9257 2.63062C23.5404 1.45999 20.9188 0.850891 18.2618 0.85C15.2311 0.849437 12.2528 1.64008 9.62141 3.14373C6.99005 4.64738 4.79683 6.81193 3.25869 9.42327C1.72055 12.0346 0.890782 15.0023 0.851465 18.0327C0.812435 21.0411 1.55375 24.0079 3.0026 26.6438L0.969641 32.741C0.839134 33.1324 0.820195 33.5523 0.914945 33.9538Z" fill="white" stroke="white" stroke-width="0.3"/>
</svg>
