<svg width="20" height="20" viewBox="0 0 20 20" fill="none" xmlns="http://www.w3.org/2000/svg">
<path d="M6 20C5.39683 20 4.88095 19.7452 4.45238 19.2356C4.02381 18.7267 3.80952 18.1204 3.80952 17.4167V7.11111L2.07143 2.22222H0V0H3.35714L4.92857 4.44444H19C19.3651 4.44444 19.6429 4.62037 19.8333 4.97222C20.0238 5.32407 20.0317 5.68519 19.8571 6.05556L17.1429 12.25C17.9524 12.3981 18.6311 12.8333 19.179 13.5556C19.7263 14.2778 20 15.1296 20 16.1111C20 17.1852 19.6787 18.1019 19.0362 18.8611C18.393 19.6204 17.6111 20 16.6905 20C15.754 20 14.9644 19.6204 14.3219 18.8611C13.6787 18.1019 13.3571 17.1852 13.3571 16.1111C13.3571 15.7407 13.3968 15.3981 13.4762 15.0833C13.5556 14.7685 13.6667 14.463 13.8095 14.1667L10.6905 13.8333L7.83333 18.8333C7.62698 19.2037 7.36095 19.4907 7.03524 19.6944C6.71016 19.8981 6.36508 20 6 20ZM6.02381 17.75C6.05556 17.75 6.12698 17.7037 6.2381 17.6111L8.54762 13.6111C7.76984 13.5185 7.15873 13.3007 6.71429 12.9578C6.26984 12.6156 5.93651 12.2593 5.71429 11.8889V17.4444C5.71429 17.537 5.74603 17.6111 5.80952 17.6667C5.87302 17.7222 5.94444 17.75 6.02381 17.75ZM16.6667 17.7778C17.0794 17.7778 17.4206 17.6156 17.6905 17.2911C17.9603 16.9674 18.0952 16.5741 18.0952 16.1111C18.0952 15.6296 17.9603 15.2315 17.6905 14.9167C17.4206 14.6019 17.0794 14.4444 16.6667 14.4444C16.2698 14.4444 15.9327 14.6019 15.6552 14.9167C15.3771 15.2315 15.2381 15.6296 15.2381 16.1111C15.2381 16.5741 15.3771 16.9674 15.6552 17.2911C15.9327 17.6156 16.2698 17.7778 16.6667 17.7778Z" fill="white"/>
</svg>
