<svg width="20" height="20" viewBox="0 0 20 20" fill="none" xmlns="http://www.w3.org/2000/svg">
<path d="M2.5 20C1.8125 20 1.22417 19.8137 0.735 19.441C0.245 19.0676 0 18.619 0 18.0952V8.57143C0 8.04762 0.245 7.59905 0.735 7.22571C1.22417 6.85302 1.8125 6.66667 2.5 6.66667H3.75V4.7619C3.75 3.44444 4.35958 2.32127 5.57875 1.39238C6.79708 0.464127 8.27083 0 10 0C11.7292 0 13.2033 0.464127 14.4225 1.39238C15.6408 2.32127 16.25 3.44444 16.25 4.7619V6.66667H17.5C18.1875 6.66667 18.7763 6.85302 19.2663 7.22571C19.7554 7.59905 20 8.04762 20 8.57143V18.0952C20 18.619 19.7554 19.0676 19.2663 19.441C18.7763 19.8137 18.1875 20 17.5 20H2.5ZM10 15.2381C10.6875 15.2381 11.2762 15.0517 11.7663 14.679C12.2554 14.3057 12.5 13.8571 12.5 13.3333C12.5 12.8095 12.2554 12.361 11.7663 11.9876C11.2762 11.6149 10.6875 11.4286 10 11.4286C9.3125 11.4286 8.72417 11.6149 8.235 11.9876C7.745 12.361 7.5 12.8095 7.5 13.3333C7.5 13.8571 7.745 14.3057 8.235 14.679C8.72417 15.0517 9.3125 15.2381 10 15.2381ZM6.25 6.66667H13.75V4.7619C13.75 3.96825 13.3854 3.29365 12.6562 2.7381C11.9271 2.18254 11.0417 1.90476 10 1.90476C8.95833 1.90476 8.07292 2.18254 7.34375 2.7381C6.61458 3.29365 6.25 3.96825 6.25 4.7619V6.66667Z" fill="#92603F"/>
</svg>
