<svg width="20" height="20" viewBox="0 0 20 20" fill="none" xmlns="http://www.w3.org/2000/svg">
<path d="M3.75 20C3.0625 20 2.47417 19.7826 1.985 19.3478C1.495 18.9122 1.25 18.3889 1.25 17.7778V3.33333C0.895833 3.33333 0.59875 3.22704 0.35875 3.01444C0.119584 2.80111 0 2.53704 0 2.22222C0 1.90741 0.119584 1.64333 0.35875 1.43C0.59875 1.21741 0.895833 1.11111 1.25 1.11111H6.25C6.25 0.796296 6.37 0.532222 6.61 0.318889C6.84917 0.106296 7.14583 0 7.5 0H12.5C12.8542 0 13.1513 0.106296 13.3913 0.318889C13.6304 0.532222 13.75 0.796296 13.75 1.11111H18.75C19.1042 1.11111 19.4008 1.21741 19.64 1.43C19.88 1.64333 20 1.90741 20 2.22222C20 2.53704 19.88 2.80111 19.64 3.01444C19.4008 3.22704 19.1042 3.33333 18.75 3.33333V17.7778C18.75 18.3889 18.5054 18.9122 18.0163 19.3478C17.5263 19.7826 16.9375 20 16.25 20H3.75ZM3.75 3.33333V17.7778H16.25V3.33333H3.75ZM6.25 14.4444C6.25 14.7593 6.37 15.023 6.61 15.2356C6.84917 15.4489 7.14583 15.5556 7.5 15.5556C7.85417 15.5556 8.15125 15.4489 8.39125 15.2356C8.63042 15.023 8.75 14.7593 8.75 14.4444V6.66667C8.75 6.35185 8.63042 6.08778 8.39125 5.87444C8.15125 5.66185 7.85417 5.55556 7.5 5.55556C7.14583 5.55556 6.84917 5.66185 6.61 5.87444C6.37 6.08778 6.25 6.35185 6.25 6.66667V14.4444ZM11.25 14.4444C11.25 14.7593 11.37 15.023 11.61 15.2356C11.8492 15.4489 12.1458 15.5556 12.5 15.5556C12.8542 15.5556 13.1513 15.4489 13.3913 15.2356C13.6304 15.023 13.75 14.7593 13.75 14.4444V6.66667C13.75 6.35185 13.6304 6.08778 13.3913 5.87444C13.1513 5.66185 12.8542 5.55556 12.5 5.55556C12.1458 5.55556 11.8492 5.66185 11.61 5.87444C11.37 6.08778 11.25 6.35185 11.25 6.66667V14.4444Z" fill="#DC8068"/>
</svg>
