<svg width="25" height="25" viewBox="0 0 25 25" fill="none" xmlns="http://www.w3.org/2000/svg">
<path d="M17.1053 14.5833C17.6754 14.5833 18.1469 14.3866 18.5197 13.9931C18.8925 13.5995 19.0789 13.1019 19.0789 12.5C19.0789 11.8981 18.8925 11.4005 18.5197 11.0069C18.1469 10.6134 17.6754 10.4167 17.1053 10.4167C16.5351 10.4167 16.0636 10.6134 15.6908 11.0069C15.318 11.4005 15.1316 11.8981 15.1316 12.5C15.1316 13.1019 15.318 13.5995 15.6908 13.9931C16.0636 14.3866 16.5351 14.5833 17.1053 14.5833ZM13.1579 19.4444C12.4342 19.4444 11.8149 19.1727 11.3 18.6292C10.7842 18.0847 10.5263 17.4306 10.5263 16.6667V8.33333C10.5263 7.56944 10.7842 6.91528 11.3 6.37083C11.8149 5.82731 12.4342 5.55556 13.1579 5.55556H22.3684C23.0921 5.55556 23.7118 5.82731 24.2276 6.37083C24.7425 6.91528 25 7.56944 25 8.33333V16.6667C25 17.4306 24.7425 18.0847 24.2276 18.6292C23.7118 19.1727 23.0921 19.4444 22.3684 19.4444H13.1579ZM2.63158 25C1.90789 25 1.28816 24.7282 0.772368 24.1847C0.257456 23.6403 0 22.9861 0 22.2222V2.77778C0 2.01389 0.257456 1.35972 0.772368 0.815278C1.28816 0.271759 1.90789 0 2.63158 0H21.0526C21.7763 0 22.3961 0.271759 22.9118 0.815278C23.4268 1.35972 23.6842 2.01389 23.6842 2.77778H13.1579C11.6009 2.77778 10.3346 3.29259 9.35921 4.32222C8.38289 5.35278 7.89474 6.68981 7.89474 8.33333V16.6667C7.89474 18.3102 8.38289 19.6468 9.35921 20.6764C10.3346 21.7069 11.6009 22.2222 13.1579 22.2222H23.6842C23.6842 22.9861 23.4268 23.6403 22.9118 24.1847C22.3961 24.7282 21.7763 25 21.0526 25H2.63158Z" fill="#92603F"/>
</svg>
